<?xml version="1.0" standalone="no"?>
<!DOCTYPE svg PUBLIC "-//W3C//DTD SVG 20010904//EN"
 "http://www.w3.org/TR/2001/REC-SVG-20010904/DTD/svg10.dtd">
<svg version="1.0" xmlns="http://www.w3.org/2000/svg"
 width="1000.000000pt" height="1000.000000pt" viewBox="0 0 1000.000000 1000.000000"
 preserveAspectRatio="xMidYMid meet">
<metadata>
Created by potrace 1.14, written by Peter Selinger 2001-2017
</metadata>
<g transform="translate(0.000000,1000.000000) scale(0.100000,-0.100000)"
fill="#000000" stroke="none">
<path d="M4566 9373 c-4 -5 -20 -9 -34 -9 -15 -1 -45 -4 -67 -7 -22 -3 -67 -9
-100 -13 -33 -5 -62 -8 -65 -9 -3 0 -11 -4 -19 -9 -9 -6 -12 -5 -7 2 4 7 -2 8
-21 2 -37 -12 -175 -41 -210 -45 -46 -5 -93 -17 -93 -24 0 -4 -10 -8 -22 -8
-47 -3 -68 -8 -68 -16 0 -4 -4 -5 -10 -2 -5 3 -18 1 -28 -4 -11 -6 -34 -13
-53 -16 -18 -3 -39 -11 -46 -17 -7 -6 -13 -8 -13 -4 0 3 -16 0 -35 -8 -19 -8
-35 -12 -35 -9 0 3 -7 0 -15 -7 -8 -7 -15 -9 -15 -5 0 4 -6 2 -13 -4 -8 -6
-22 -12 -33 -14 -10 -1 -25 -6 -31 -10 -7 -5 -13 -5 -13 0 0 4 -4 3 -8 -3 -4
-7 -18 -14 -32 -15 -14 -2 -31 -10 -38 -17 -8 -7 -18 -10 -23 -7 -5 4 -9 1 -9
-6 0 -7 -3 -9 -7 -6 -3 4 -17 0 -30 -8 -13 -9 -23 -13 -23 -9 0 3 -11 -1 -25
-10 -14 -9 -25 -14 -25 -10 0 4 -7 1 -15 -6 -8 -7 -15 -9 -15 -4 0 5 -4 3 -9
-4 -4 -7 -14 -15 -22 -16 -8 -1 -40 -15 -73 -29 -32 -15 -61 -27 -63 -27 -2 0
-11 -7 -20 -15 -8 -8 -19 -13 -24 -10 -5 4 -9 2 -9 -2 0 -9 -59 -37 -72 -34
-5 0 -8 -3 -8 -8 0 -5 -8 -11 -17 -14 -27 -9 -151 -81 -176 -102 -12 -11 -23
-18 -25 -16 -2 1 -33 -17 -69 -41 -36 -24 -73 -48 -82 -53 -49 -31 -79 -52
-101 -72 -14 -13 -29 -23 -35 -23 -5 0 -28 -16 -50 -35 -22 -19 -45 -38 -50
-43 -48 -35 -111 -89 -118 -99 -4 -7 -13 -13 -18 -13 -6 0 -26 -16 -45 -36
-19 -20 -34 -34 -34 -30 0 3 -36 -29 -80 -73 -44 -43 -80 -77 -80 -75 0 6 -89
-86 -89 -92 0 -2 -20 -24 -43 -47 -41 -41 -106 -113 -138 -154 -8 -10 -37 -44
-63 -76 -27 -31 -46 -57 -43 -57 3 0 -11 -17 -29 -37 -19 -21 -35 -43 -35 -48
0 -6 -9 -17 -19 -25 -11 -7 -18 -17 -15 -22 3 -4 0 -8 -6 -8 -6 0 -15 -10 -21
-22 -8 -20 -41 -70 -66 -103 -15 -19 -47 -70 -47 -75 0 -3 -8 -14 -18 -24 -10
-11 -18 -26 -18 -33 0 -7 -4 -13 -10 -13 -5 0 -10 -7 -10 -15 0 -8 -9 -24 -20
-35 -11 -11 -18 -20 -16 -20 3 0 -11 -27 -30 -61 -18 -33 -34 -65 -34 -70 0
-5 -5 -9 -12 -9 -6 0 -8 -3 -5 -7 4 -3 1 -13 -7 -22 -8 -9 -15 -19 -15 -23 -2
-15 -36 -83 -43 -86 -5 -2 -8 -8 -8 -13 0 -6 -18 -48 -40 -95 -22 -47 -40 -87
-40 -90 0 -3 -10 -26 -22 -52 -11 -26 -21 -53 -21 -59 0 -7 -4 -13 -9 -13 -4
0 -7 -3 -6 -7 2 -6 -10 -43 -27 -83 -1 -3 -6 -20 -10 -37 -4 -18 -12 -33 -18
-33 -6 0 -8 -3 -4 -6 3 -3 1 -18 -5 -33 -9 -23 -13 -40 -21 -76 -2 -5 -6 -16
-10 -22 -5 -7 -6 -17 -3 -22 4 -5 2 -11 -3 -13 -6 -1 -13 -18 -16 -37 -3 -19
-8 -38 -11 -43 -3 -4 -7 -18 -10 -30 -9 -38 -12 -53 -14 -55 -2 -2 -3 -11 -5
-20 -1 -10 -4 -25 -8 -33 -6 -16 -34 -147 -42 -195 -3 -17 -9 -50 -14 -75 -5
-25 -7 -48 -5 -52 3 -5 1 -8 -3 -8 -5 0 -8 -12 -8 -27 1 -16 -1 -32 -4 -38 -3
-5 -6 -28 -8 -50 -1 -22 -2 -40 -3 -40 -3 0 -9 -53 -11 -90 -1 -16 -4 -34 -8
-40 -9 -15 -10 -35 -2 -35 8 0 7 -42 -2 -56 -10 -17 -7 -643 3 -649 6 -3 6
-15 0 -29 -6 -16 -5 -28 3 -36 9 -10 9 -11 -3 -5 -12 7 -13 6 -3 -6 6 -8 10
-24 9 -34 -2 -11 -1 -24 3 -30 3 -5 6 -24 6 -40 1 -17 5 -37 9 -44 5 -8 4 -16
-3 -21 -9 -5 -8 -10 2 -19 8 -6 13 -21 10 -31 -3 -11 -2 -28 2 -37 4 -10 9
-36 10 -58 4 -54 8 -69 20 -77 6 -5 5 -8 -4 -8 -10 0 -11 -4 -3 -13 6 -6 13
-28 15 -47 3 -19 6 -35 7 -35 1 0 7 -28 13 -62 1 -10 5 -22 8 -28 4 -5 5 -18
4 -27 -2 -10 1 -18 5 -18 5 0 7 -9 5 -19 -2 -11 2 -22 9 -24 9 -3 12 -15 9
-31 -3 -14 -1 -32 4 -39 5 -6 9 -19 8 -27 0 -8 3 -18 7 -21 8 -5 17 -36 22
-71 1 -10 5 -21 9 -24 4 -4 7 -18 7 -31 0 -12 5 -23 12 -23 6 0 8 -3 5 -7 -4
-3 -2 -12 4 -20 6 -7 9 -13 5 -13 -3 0 3 -24 15 -52 11 -29 22 -60 24 -68 6
-26 49 -129 72 -172 8 -16 12 -28 8 -28 -3 0 6 -21 19 -47 51 -102 81 -168 78
-175 -1 -5 2 -8 6 -8 5 0 14 -16 22 -35 8 -19 17 -35 22 -35 4 0 7 -3 6 -8 -4
-12 34 -82 44 -82 5 0 7 -4 4 -9 -3 -5 8 -28 24 -52 16 -24 30 -50 30 -56 0
-7 5 -13 10 -13 6 0 10 -7 10 -15 0 -8 4 -15 8 -15 5 0 14 -16 22 -35 7 -19
17 -32 22 -29 4 3 8 -2 8 -11 0 -9 6 -23 12 -30 26 -28 34 -40 36 -50 2 -5 11
-20 22 -32 10 -12 24 -32 31 -44 6 -13 20 -32 30 -43 11 -11 19 -23 19 -26 0
-4 11 -20 25 -36 14 -16 29 -34 33 -39 49 -69 96 -125 105 -125 6 0 8 -3 4 -6
-3 -3 4 -16 16 -29 12 -12 42 -46 67 -75 47 -56 297 -310 304 -310 2 0 22 -17
43 -37 21 -21 70 -64 108 -95 39 -32 80 -67 93 -78 12 -12 22 -18 22 -14 0 4
8 -3 19 -14 10 -12 23 -22 30 -22 6 0 11 -3 11 -7 1 -5 30 -28 67 -53 36 -25
74 -53 83 -62 10 -9 21 -14 24 -11 3 3 8 -2 12 -11 3 -9 10 -13 15 -10 5 3 9
1 9 -5 0 -5 9 -13 20 -16 12 -4 30 -16 42 -28 11 -12 17 -15 13 -7 -5 10 -1 8
13 -4 25 -22 52 -39 100 -61 17 -8 32 -20 32 -25 0 -6 3 -9 8 -8 8 1 45 -13
52 -21 3 -4 37 -22 75 -41 39 -19 72 -38 73 -42 2 -5 12 -8 23 -8 10 0 19 -4
19 -10 0 -5 5 -10 10 -10 6 0 43 -15 83 -34 90 -41 110 -50 120 -48 4 1 7 -2
7 -8 0 -5 11 -10 25 -10 14 0 25 -4 25 -10 0 -5 8 -10 18 -10 10 0 22 -4 28
-10 5 -5 18 -11 29 -13 20 -4 41 -11 80 -27 22 -9 46 -17 58 -19 4 0 23 -7 42
-15 19 -8 35 -12 35 -9 0 3 11 -2 25 -11 14 -9 25 -14 25 -11 0 2 12 0 28 -6
27 -11 43 -15 91 -25 14 -3 28 -7 33 -10 4 -3 18 -7 30 -10 33 -7 52 -12 58
-14 3 -1 9 -2 14 -1 5 1 21 -3 35 -8 14 -6 40 -12 56 -15 17 -2 30 -5 30 -6 0
-2 36 -9 130 -25 64 -10 80 -13 80 -15 0 -3 81 -12 117 -14 21 0 38 -4 38 -7
0 -4 17 -6 38 -4 20 1 42 0 47 -3 6 -4 26 -7 45 -8 19 -1 37 -3 40 -4 14 -6
36 -4 42 5 5 6 8 6 8 -2 0 -16 547 -18 567 -2 9 8 13 8 13 1 0 -6 10 -9 23 -6
20 5 80 12 152 17 17 1 36 6 43 10 7 5 12 3 12 -4 0 -8 4 -8 13 -2 6 6 20 9
30 8 9 -2 17 0 17 3 0 4 17 7 38 7 20 0 42 2 47 6 11 7 34 9 78 9 16 0 26 4
22 9 -3 6 4 8 16 6 12 -3 27 -1 33 2 6 4 22 8 36 9 14 1 26 3 28 4 4 4 21 7
48 9 14 0 23 5 20 10 -3 5 10 7 29 5 19 -1 35 1 35 6 0 5 8 9 18 9 32 1 82 13
82 21 0 4 13 7 29 8 15 0 44 7 64 15 19 9 38 13 41 9 3 -3 6 1 6 8 0 7 3 11 6
7 3 -3 18 -1 33 5 25 9 48 16 80 22 8 1 17 8 19 14 2 7 7 10 12 7 5 -3 31 4
58 14 27 11 53 17 56 14 3 -4 6 -2 6 4 0 6 20 17 45 24 25 7 45 18 45 23 0 5
3 7 6 3 4 -3 19 0 34 8 15 8 30 11 34 8 3 -4 6 -1 6 5 0 9 24 22 50 27 25 5
50 18 50 26 0 6 5 7 10 4 6 -3 10 -1 10 5 0 6 4 9 9 6 4 -3 17 1 27 9 10 8 27
15 37 15 9 0 17 4 17 9 0 9 18 17 45 23 6 1 16 8 23 15 7 7 19 13 27 13 7 0
15 3 17 8 2 4 33 23 71 42 37 19 67 38 67 42 0 5 4 8 9 8 15 0 191 111 191
121 0 5 9 9 19 9 10 0 22 7 25 16 3 8 10 12 16 9 5 -3 10 -2 10 3 0 5 26 26
58 47 59 41 72 51 110 85 12 11 22 18 22 16 0 -3 18 11 39 31 22 19 43 36 47
36 8 2 84 71 177 159 34 32 62 58 64 58 12 0 279 291 344 375 30 38 35 45 57
72 9 12 26 34 37 49 11 16 28 36 37 46 10 10 16 18 13 18 -5 0 18 30 43 56 7
8 10 14 6 14 -4 0 0 8 8 17 27 32 88 123 88 132 0 5 4 11 8 13 10 4 82 125 82
139 0 5 4 9 9 9 5 0 14 12 20 28 10 24 32 67 81 152 8 14 13 31 11 39 -1 7 2
10 8 6 6 -3 11 -1 11 5 0 6 16 43 35 83 19 39 35 78 35 84 0 7 5 13 10 13 6 0
9 3 9 7 -1 5 0 11 1 16 1 4 3 10 4 15 1 4 10 22 19 40 10 17 14 32 11 32 -4 0
1 9 12 21 10 12 17 22 15 23 -6 2 20 78 30 92 5 6 6 14 2 17 -3 4 -1 7 5 7 7
0 11 3 10 8 -2 9 13 64 21 77 3 6 6 12 6 15 0 10 28 95 37 115 5 11 10 32 12
46 1 13 5 29 9 35 3 6 8 21 11 35 2 13 9 36 15 52 6 15 8 27 5 27 -4 0 -2 6 3
13 6 6 9 20 8 30 -2 9 1 17 6 17 6 0 7 4 4 10 -3 5 -3 16 2 23 4 6 8 19 8 27
0 8 3 20 6 25 4 6 5 18 4 28 -2 9 1 17 6 17 6 0 8 4 5 8 -3 5 13 103 23 140 1
1 1 3 2 5 2 6 8 48 13 97 6 54 13 95 16 95 1 0 3 25 5 55 6 82 14 140 20 150
3 6 1 10 -6 10 -9 0 -9 3 0 14 9 10 9 16 1 21 -7 5 -8 11 -1 19 13 15 14 545
1 566 -6 9 -5 19 2 28 8 10 9 15 1 20 -6 4 -11 21 -10 37 0 33 -10 135 -18
176 -3 15 -7 49 -10 75 -2 27 -8 65 -13 84 -5 19 -9 40 -10 45 -10 75 -20 130
-22 130 -2 0 -4 12 -13 60 -4 17 -11 48 -17 70 -6 22 -13 54 -16 70 -3 17 -10
32 -15 33 -5 2 -7 7 -4 11 3 7 0 24 -20 91 -1 3 -7 26 -15 53 -7 26 -16 50
-21 52 -4 3 -6 12 -2 20 3 8 0 15 -5 15 -6 0 -10 8 -10 18 0 9 -12 49 -26 87
-15 39 -29 79 -31 89 -3 11 -10 23 -16 26 -6 4 -10 9 -8 11 1 2 -1 15 -5 29
-5 14 -8 28 -7 33 1 4 -3 7 -7 7 -4 0 -14 20 -21 45 -7 25 -17 45 -22 45 -5 0
-9 9 -9 20 0 11 -11 38 -25 60 -14 22 -23 40 -21 40 9 0 -154 302 -168 312 -7
5 -7 8 -1 8 6 0 1 7 -10 16 -11 8 -18 16 -17 17 7 4 -21 57 -30 57 -4 0 -8 5
-8 10 0 10 -68 119 -81 130 -3 3 -14 20 -24 38 -11 17 -23 32 -27 32 -4 0 -8
7 -8 15 0 8 -9 20 -20 27 -11 7 -20 19 -20 27 0 7 -10 22 -22 32 -11 11 -18
19 -15 19 4 0 -1 8 -10 18 -19 20 -28 31 -83 102 -19 24 -49 60 -66 80 -18 19
-42 48 -55 63 -38 44 -280 288 -330 332 -25 22 -70 60 -99 85 -29 25 -58 50
-64 55 -6 6 -29 23 -51 40 -22 16 -51 40 -65 52 -14 13 -28 23 -32 23 -7 0
-36 21 -63 48 -8 6 -18 12 -24 12 -6 0 -11 5 -11 10 0 6 -6 10 -14 10 -8 0
-16 3 -18 8 -1 4 -34 28 -73 53 -106 70 -129 84 -137 81 -5 -1 -8 2 -8 8 0 5
-7 10 -15 10 -8 0 -15 3 -15 8 0 4 -8 12 -19 17 -10 6 -61 32 -112 59 -52 26
-97 53 -101 60 -4 6 -8 8 -8 3 0 -4 -33 10 -72 30 -40 21 -79 37 -85 36 -7 0
-13 3 -13 7 0 7 -28 21 -50 25 -3 0 -27 11 -55 24 -27 12 -57 24 -65 26 -8 2
-37 13 -65 25 -27 12 -58 22 -67 23 -10 1 -18 5 -18 9 0 4 -8 8 -18 8 -10 0
-23 5 -30 12 -7 7 -12 9 -12 6 0 -4 -25 2 -55 12 -30 10 -55 16 -55 13 0 -3
-6 -1 -12 5 -11 9 -71 28 -118 37 -8 2 -15 4 -15 5 0 1 -11 3 -25 6 -14 2 -32
7 -40 11 -17 6 -35 11 -65 16 -11 2 -26 6 -33 11 -6 4 -16 5 -21 1 -5 -3 -12
-1 -16 4 -3 6 -12 8 -20 5 -7 -3 -22 -1 -33 5 -10 6 -36 11 -56 13 -21 1 -39
5 -41 9 -3 3 -16 5 -30 4 -14 -2 -25 0 -25 4 0 4 -13 6 -30 5 -16 -1 -30 2
-30 7 0 6 -8 5 -19 -1 -12 -6 -21 -6 -23 0 -2 5 -31 10 -65 12 -35 2 -63 6
-63 9 0 3 -12 5 -27 4 -16 -1 -34 2 -40 8 -9 6 -18 5 -27 -2 -9 -8 -16 -8 -20
-2 -10 15 -716 13 -716 -2 0 -8 -3 -8 -8 1 -5 7 -12 9 -16 5z m824 -936 c0 -4
6 -5 13 0 18 12 107 11 107 -2 0 -7 3 -7 8 0 4 6 21 11 37 11 17 0 33 -5 37
-11 5 -7 8 -7 8 1 0 13 62 13 72 -1 5 -7 8 -6 8 0 0 6 16 11 35 11 19 0 35 -4
35 -9 0 -5 8 -3 17 4 14 12 16 12 8 0 -6 -11 -5 -12 6 -5 19 12 62 12 71 -1 5
-7 8 -7 8 0 0 10 112 13 145 5 6 -1 15 -1 20 0 25 7 61 4 67 -5 5 -7 8 -7 8 0
0 10 112 13 145 5 6 -1 12 -1 15 0 14 7 90 5 90 -3 0 -4 6 -5 13 0 16 10 86
11 114 1 12 -4 25 -3 28 2 6 11 33 9 52 -3 6 -4 14 -3 17 1 4 7 36 9 67 3 3
-1 5 -115 4 -255 0 -154 3 -252 9 -249 5 4 6 0 1 -8 -12 -18 -13 -239 -2 -232
5 3 5 -2 0 -13 -5 -11 -8 -29 -7 -42 0 -12 -3 -25 -7 -28 -5 -3 -5 -13 0 -22
5 -9 8 -45 6 -79 -1 -40 2 -60 8 -56 6 4 7 1 1 -8 -11 -18 -13 -159 -2 -153 4
3 5 -2 2 -10 -7 -19 20 -18 -324 -20 -157 0 -290 -4 -297 -9 -6 -4 -14 -3 -18
3 -4 6 -12 7 -18 3 -7 -4 -16 -8 -22 -9 -50 -9 -68 -15 -107 -33 -75 -34 -157
-100 -203 -165 -11 -16 -26 -34 -33 -42 -7 -8 -11 -14 -8 -14 3 0 -3 -16 -14
-35 -11 -19 -22 -47 -25 -62 -7 -32 -13 -56 -15 -63 -1 -3 -2 -9 -1 -14 1 -4
-4 -14 -10 -22 -6 -8 -7 -14 -2 -14 5 0 10 -7 10 -15 0 -8 -5 -15 -11 -15 -6
0 -5 -5 2 -12 8 -8 9 -15 1 -25 -7 -7 -7 -13 -2 -13 5 0 10 -7 10 -15 0 -8 -5
-15 -11 -15 -6 0 -6 -4 1 -11 8 -8 8 -20 3 -34 -5 -13 -6 -25 -3 -29 9 -9 10
-85 1 -80 -4 3 -8 0 -8 -5 0 -6 4 -11 8 -11 9 0 7 -53 -2 -69 -4 -5 -2 -12 4
-16 6 -4 7 -12 1 -22 -4 -9 -6 -23 -4 -33 4 -15 45 -17 536 -18 293 0 537 -1
543 -1 7 -1 10 -45 9 -130 0 -75 3 -127 8 -124 5 3 5 -2 0 -13 -5 -11 -8 -29
-7 -42 0 -12 -3 -25 -7 -28 -5 -3 -5 -13 0 -22 5 -9 8 -45 6 -79 -1 -40 2 -60
8 -56 6 4 7 1 1 -8 -11 -19 -12 -479 0 -472 5 4 6 0 0 -8 -4 -8 -9 -52 -10
-99 -1 -47 -2 -87 -3 -90 0 -3 -244 -5 -542 -5 l-540 0 4 -22 c2 -13 1 -23 -2
-23 -4 0 -7 -9 -7 -20 0 -11 4 -20 8 -20 7 0 3 -34 -7 -50 -3 -6 -2 -10 3 -10
5 0 9 -7 9 -15 0 -8 -4 -15 -9 -15 -5 0 -4 -9 2 -20 8 -15 8 -20 -2 -20 -8 0
-9 -3 -3 -8 14 -10 17 -32 5 -32 -7 0 -8 -6 -1 -17 6 -11 6 -24 0 -35 -5 -10
-6 -18 -2 -18 5 0 8 -20 8 -44 0 -24 -3 -42 -7 -39 -5 2 -8 -1 -8 -6 0 -6 4
-11 8 -11 4 0 8 -9 8 -20 0 -11 -4 -20 -9 -20 -4 0 -5 -6 -1 -12 10 -16 13
-48 4 -48 -3 0 -6 -9 -6 -20 0 -11 4 -20 7 -20 7 0 3 -41 -6 -67 -2 -7 -1 -13
3 -13 4 0 7 -20 7 -44 0 -24 -3 -42 -7 -39 -5 2 -8 -1 -8 -6 0 -6 4 -11 8 -11
4 0 8 -9 8 -20 0 -11 -4 -20 -9 -20 -4 0 -5 -6 -1 -12 10 -16 13 -48 4 -48 -3
0 -6 -9 -6 -20 0 -11 3 -20 6 -20 3 0 5 -20 5 -44 0 -24 -3 -42 -7 -39 -5 2
-8 -1 -8 -6 0 -6 4 -11 8 -11 4 0 8 -9 8 -20 0 -11 -4 -20 -9 -20 -4 0 -5 -6
-1 -12 12 -19 12 -48 0 -48 -7 0 -7 -3 -1 -8 12 -9 16 -44 4 -36 -5 3 -9 0 -9
-5 0 -6 4 -11 8 -11 4 0 8 -9 8 -20 0 -11 -4 -20 -9 -20 -4 0 -5 -6 0 -12 11
-18 10 -42 -2 -50 -7 -5 -7 -10 0 -15 14 -11 17 -33 5 -33 -7 0 -7 -6 0 -20 8
-15 8 -20 -2 -20 -8 0 -9 -3 -3 -8 14 -10 17 -32 5 -32 -7 0 -8 -6 -1 -17 6
-11 6 -24 0 -35 -5 -10 -6 -18 -2 -18 5 0 8 -20 8 -44 0 -24 -3 -42 -7 -39 -5
2 -8 -1 -8 -6 0 -6 4 -11 8 -11 4 0 8 -9 8 -20 0 -11 -4 -20 -9 -20 -4 0 -5
-6 -1 -12 10 -16 13 -48 4 -48 -3 0 -6 -9 -6 -20 0 -11 4 -20 8 -20 7 0 3 -34
-7 -50 -3 -6 -2 -10 3 -10 5 0 9 -7 9 -15 0 -8 -4 -15 -9 -15 -5 0 -4 -9 2
-20 8 -15 8 -20 -2 -20 -8 0 -9 -3 -3 -8 14 -10 17 -32 4 -32 -5 0 -7 -5 -3
-12 11 -17 12 -68 2 -62 -4 3 -8 0 -8 -5 0 -6 4 -11 8 -11 4 0 8 -9 8 -20 0
-11 -4 -20 -9 -20 -4 0 -5 -6 -1 -12 12 -19 12 -48 0 -48 -7 0 -7 -3 -1 -8 12
-9 16 -44 4 -36 -5 3 -9 0 -9 -5 0 -6 4 -11 8 -11 4 0 8 -9 8 -20 0 -11 -4
-20 -9 -20 -4 0 -5 -6 -1 -12 10 -16 13 -48 4 -48 -3 0 -6 -9 -6 -20 0 -11 3
-20 6 -20 3 0 5 -20 5 -44 0 -24 -3 -42 -7 -39 -5 2 -8 -1 -8 -6 0 -6 4 -11 8
-11 4 0 8 -9 8 -20 0 -11 -4 -20 -9 -20 -4 0 -5 -6 -1 -12 10 -16 13 -48 4
-48 -3 0 -6 -9 -6 -20 0 -11 4 -20 7 -20 7 0 3 -41 -6 -67 -2 -7 -1 -13 3 -13
4 0 7 -20 7 -44 0 -24 -3 -42 -7 -39 -5 2 -8 -1 -8 -6 0 -6 4 -11 8 -11 4 0 8
-9 8 -20 0 -11 -4 -20 -9 -20 -4 0 -5 -6 -1 -12 10 -16 13 -48 4 -48 -3 0 -6
-9 -6 -20 0 -11 3 -20 6 -20 3 0 5 -20 5 -44 0 -24 -3 -42 -7 -39 -5 2 -8 -1
-8 -6 0 -6 5 -11 10 -11 7 0 7 -6 1 -19 -6 -10 -8 -21 -5 -24 11 -11 11 -57 0
-57 -7 0 -7 -3 -1 -8 12 -9 16 -44 4 -36 -5 3 -9 0 -9 -5 0 -6 5 -11 10 -11 7
0 7 -6 1 -19 -6 -10 -8 -21 -4 -24 10 -11 9 -52 -2 -60 -7 -4 -7 -10 0 -15 14
-10 17 -32 5 -32 -7 0 -7 -6 0 -20 8 -15 8 -20 -2 -20 -8 0 -9 -3 -3 -8 14
-10 17 -32 5 -32 -7 0 -8 -6 -1 -17 6 -11 6 -24 0 -35 -5 -10 -6 -18 -2 -18 5
0 8 -20 8 -44 0 -24 -3 -42 -7 -39 -5 2 -8 -1 -8 -6 0 -6 5 -11 10 -11 7 0 7
-6 1 -19 -6 -10 -8 -21 -5 -24 10 -9 12 -57 2 -57 -5 0 -4 -8 1 -18 13 -25 -4
-54 -19 -32 -5 8 -10 10 -10 5 0 -12 -348 -14 -367 -2 -6 4 -14 4 -17 -1 -6
-10 -287 -10 -303 1 -6 4 -14 4 -17 -1 -6 -10 -287 -10 -303 1 -6 4 -15 3 -18
-3 -8 -13 -77 -9 -87 5 -5 6 -8 6 -8 -1 0 -13 -298 -13 -319 0 -9 6 -12 5 -7
-2 4 -7 -4 -10 -24 -10 -23 1 -30 6 -31 22 0 12 0 827 -1 1811 l0 1790 -489 0
c-326 0 -490 3 -492 10 -2 5 -2 78 -2 160 1 95 -2 155 -9 164 -8 11 -8 13 1 7
16 -9 15 42 -1 63 -8 11 -8 13 0 8 14 -8 14 121 0 142 -6 9 -5 12 1 8 12 -8
12 81 0 100 -4 6 -4 14 1 17 11 7 9 277 -2 295 -6 9 -5 12 1 8 13 -8 11 92 -1
112 -6 10 -5 12 3 7 8 -5 10 0 7 19 -12 63 -40 60 494 60 l485 0 3 395 c3 435
4 490 13 490 3 0 5 10 6 23 0 27 13 109 18 118 2 3 7 20 10 38 3 19 13 50 22
70 9 20 17 41 18 46 4 28 18 65 24 65 4 0 8 7 8 15 0 18 34 87 48 97 6 4 7 8
2 8 -8 0 36 73 64 105 10 11 19 25 20 30 3 14 49 75 77 101 12 12 22 24 22 27
0 14 161 163 172 159 5 -1 8 2 8 7 0 5 23 24 50 42 28 18 50 36 50 41 0 5 4 7
9 3 5 -3 15 1 23 8 22 21 155 87 162 80 3 -3 6 -2 6 4 0 10 46 28 63 25 4 -1
7 3 7 9 0 6 7 9 15 5 8 -3 15 0 15 6 0 6 3 8 7 5 3 -4 12 -2 20 5 7 6 16 8 19
5 3 -3 21 1 40 9 19 8 39 12 44 9 5 -3 11 -1 15 4 3 5 14 8 25 6 11 -2 20 0
20 4 0 7 11 9 107 14 24 1 43 4 43 7 0 3 20 5 45 6 25 0 45 -4 45 -9z"/>
</g>
</svg>
